# xmcd
#
# Track frame offsets: 
#        150
#        19099
#        37619
#        58856
#        79132
#        95917
#        113165
#        129089
#        144204
#        160569
#        177220
#        193896
#        210753
#        227384
#        244702
#
# Disc length: 3495 seconds
#
# Revision: 0
# Processed by: cddbd v1.5.2PL0 Copyright (c) Steve Scherf et al.
# Submitted via: ExactAudioCopy v0.99pb3
#
DISCID=b10da50f
DTITLE=Lee Perry - An Introduction To Lee Perry
DYEAR=2006
DGENRE=Blues
TTITLE0=Reggae Duppy
TTITLE1=Kingston Breakdown
TTITLE2=Dread Perry
TTITLE3=Land Of Sex
TTITLE4=Fire Juice
TTITLE5=Rock Well
TTITLE6=Love Doctor
TTITLE7=Cash
TTITLE8=Gabrielle
TTITLE9=Rise Up Kinky
TTITLE10=Reggae Opera
TTITLE11=Jah Power
TTITLE12=World Peace
TTITLE13=Message From Black Ark
TTITLE14=Black Street
EXTD=
EXTT0=
EXTT1=
EXTT2=
EXTT3=
EXTT4=
EXTT5=
EXTT6=
EXTT7=
EXTT8=
EXTT9=
EXTT10=
EXTT11=
EXTT12=
EXTT13=
EXTT14=
PLAYORDER=
